<svg xmlns="http://www.w3.org/2000/svg" width="409" height="283" fill="none"><ellipse cx="117.007" cy="145.98" fill="#EEF3FF" rx="82" ry="82.014" transform="rotate(179.995 117.007 145.98)"/><mask id="a" width="29.002" height="22.002" x="78.037" y="69.993" fill="#000" maskUnits="userSpaceOnUse"><path fill="#fff" d="M78.037 69.993h29.002v22.002H78.037z"/><path d="M104.171 71.092a75.992 75.992 0 0 0-25.038 9.03l6.064 10.542a63.835 63.835 0 0 1 21.032-7.585l-2.058-11.987z"/></mask><path fill="#9FB7F3" d="M104.171 71.092a75.992 75.992 0 0 0-25.038 9.03l6.064 10.542a63.835 63.835 0 0 1 21.032-7.585l-2.058-11.987z"/><path stroke="#fff" stroke-linejoin="round" d="M104.171 71.092a75.992 75.992 0 0 0-25.038 9.03l6.064 10.542a63.835 63.835 0 0 1 21.032-7.585l-2.058-11.987z" mask="url(#a)"/><mask id="b" width="32.004" height="44.003" x="41.021" y="90.99" fill="#000" maskUnits="userSpaceOnUse"><path fill="#fff" d="M41.021 90.99h32.004v44.003H41.021z"/><path d="M63.284 92.255a76.017 76.017 0 0 0-21.01 40.005l11.96 2.2a63.85 63.85 0 0 1 17.648-33.604l-8.598-8.601z"/></mask><path fill="#A2DFEC" d="M63.284 92.255a76.017 76.017 0 0 0-21.01 40.005l11.96 2.2a63.85 63.85 0 0 1 17.648-33.604l-8.598-8.601z"/><path stroke="#fff" stroke-linejoin="round" d="M63.284 92.255a76.017 76.017 0 0 0-21.01 40.005l11.96 2.2a63.85 63.85 0 0 1 17.648-33.604l-8.598-8.601z" mask="url(#b)"/><mask id="c" width="30.002" height="28.003" x="56.023" y="79.991" fill="#000" maskUnits="userSpaceOnUse"><path fill="#fff" d="M56.023 79.991h30.002v28.003H56.023z"/><path d="M78.45 80.513a76.006 76.006 0 0 0-21.922 19.48l9.679 7.363A63.835 63.835 0 0 1 84.62 90.992l-6.17-10.48z"/></mask><path fill="#03CC76" d="M78.45 80.513a76.006 76.006 0 0 0-21.922 19.48l9.679 7.363A63.835 63.835 0 0 1 84.62 90.992l-6.17-10.48z"/><path fill="#B1D889" d="M78.45 80.513a76.006 76.006 0 0 0-21.922 19.48l9.679 7.363A63.835 63.835 0 0 1 84.62 90.992l-6.17-10.48z"/><path stroke="#fff" stroke-linejoin="round" d="M78.45 80.513a76.006 76.006 0 0 0-21.922 19.48l9.679 7.363A63.835 63.835 0 0 1 84.62 90.992l-6.17-10.48z" mask="url(#c)"/><mask id="d" width="18.004" height="43.002" x="40.03" y="130.99" fill="#000" maskUnits="userSpaceOnUse"><path fill="#fff" d="M40.03 130.99h18.004v43.002H40.03z"/><path d="M42.262 132.394a76.026 76.026 0 0 0 3.616 40.322l11.385-4.273a63.862 63.862 0 0 1-3.038-33.871l-11.963-2.178z"/></mask><path fill="#FFBABA" d="M42.262 132.394a76.026 76.026 0 0 0 3.616 40.322l11.385-4.273a63.862 63.862 0 0 1-3.038-33.871l-11.963-2.178z"/><path stroke="#fff" stroke-linejoin="round" d="M42.262 132.394a76.026 76.026 0 0 0 3.616 40.322l11.385-4.273a63.862 63.862 0 0 1-3.038-33.871l-11.963-2.178z" mask="url(#d)"/><mask id="e" width="41.004" height="46.003" x="45.015" y="166.99" fill="#000" maskUnits="userSpaceOnUse"><path fill="#fff" d="M45.015 166.99h41.004v46.003H45.015z"/><path d="M45.855 172.685A76.01 76.01 0 0 0 79.2 211.941l6.052-10.549a63.849 63.849 0 0 1-28.011-32.975l-11.386 4.268z"/></mask><path fill="#F1F093" d="M45.855 172.685A76.01 76.01 0 0 0 79.2 211.941l6.052-10.549a63.849 63.849 0 0 1-28.011-32.975l-11.386 4.268z"/><path stroke="#fff" stroke-linejoin="round" d="M45.855 172.685A76.01 76.01 0 0 0 79.2 211.941l6.052-10.549a63.849 63.849 0 0 1-28.011-32.975l-11.386 4.268z" mask="url(#e)"/><mask id="f" width="75.002" height="23.006" x="78.014" y="199.993" fill="#000" maskUnits="userSpaceOnUse"><path fill="#fff" d="M78.014 199.993h75.002v23.006H78.014z"/><path d="M79.144 211.909a75.998 75.998 0 0 0 73.207 1.4l-5.653-10.768a63.842 63.842 0 0 1-30.898 7.307 63.843 63.843 0 0 1-30.596-8.483l-6.06 10.544z"/></mask><path fill="#95DDB8" d="M79.144 211.909a75.998 75.998 0 0 0 73.207 1.4l-5.653-10.768a63.842 63.842 0 0 1-30.898 7.307 63.843 63.843 0 0 1-30.596-8.483l-6.06 10.544z"/><path stroke="#fff" stroke-linejoin="round" d="M79.144 211.909a75.998 75.998 0 0 0 73.207 1.4l-5.653-10.768a63.842 63.842 0 0 1-30.898 7.307 63.843 63.843 0 0 1-30.596-8.483l-6.06 10.544z" mask="url(#f)"/><mask id="g" width="17.001" height="15.001" x="102.025" y="68.995" fill="#000" maskUnits="userSpaceOnUse"><path fill="#fff" d="M102.025 68.995h17.001v15.001h-17.001z"/><path d="M117.599 69.998a76.06 76.06 0 0 0-14.177 1.224l2.176 11.966a63.825 63.825 0 0 1 11.908-1.028l.093-12.162z"/></mask><path fill="#B2B2B2" d="M117.599 69.998a76.06 76.06 0 0 0-14.177 1.224l2.176 11.966a63.825 63.825 0 0 1 11.908-1.028l.093-12.162z"/><path stroke="#fff" stroke-linejoin="round" d="M117.599 69.998a76.06 76.06 0 0 0-14.177 1.224l2.176 11.966a63.825 63.825 0 0 1 11.908-1.028l.093-12.162z" mask="url(#g)"/><mask id="h" width="48.006" height="75.004" x="146.015" y="138.998" fill="#000" maskUnits="userSpaceOnUse"><path fill="#fff" d="M146.015 138.998h48.006v75.004h-48.006z"/><path d="M152.23 213.372a76.01 76.01 0 0 0 40.577-73.054l-12.126.911a63.859 63.859 0 0 1-34.085 61.365l5.634 10.778z"/></mask><path fill="#FDDFB1" d="M152.23 213.372a76.01 76.01 0 0 0 40.577-73.054l-12.126.911a63.859 63.859 0 0 1-34.085 61.365l5.634 10.778z"/><path fill="#FF9C9C" d="M152.23 213.372a76.01 76.01 0 0 0 40.577-73.054l-12.126.911a63.859 63.859 0 0 1-34.085 61.365l5.634 10.778z"/><path stroke="#fff" stroke-linejoin="round" d="M152.23 213.372a76.01 76.01 0 0 0 40.577-73.054l-12.126.911a63.859 63.859 0 0 1-34.085 61.365l5.634 10.778z" mask="url(#h)"/><g filter="url(#i)"><path fill="url(#j)" d="M42.086 134.096a76.02 76.02 0 0 1 20.099-40.47l8.792 8.401a63.853 63.853 0 0 0-16.884 33.995l-12.007-1.926z"/></g><path fill="#333" d="M101.056 166.255c3.41 0 5.632-1.848 5.632-4.444 0-2.046-1.584-3.212-3.19-3.586 1.628-.484 2.86-1.672 2.86-3.498 0-2.398-2.134-4.114-5.346-4.114-2.574 0-4.334 1.144-5.544 2.662l1.628 1.672c1.034-1.144 2.178-1.87 3.674-1.87 1.628 0 2.816.858 2.816 2.09 0 1.32-1.166 2.046-2.948 2.024h-1.694v2.376l1.694-.022c2.134 0 3.256.704 3.256 2.046 0 1.32-1.122 2.222-2.926 2.222-1.628 0-3.08-.726-4.136-1.914l-1.672 1.804c1.232 1.474 3.256 2.552 5.896 2.552zm13.924-9.922c-1.54 0-2.992.638-3.916 1.716.176-2.97 1.694-5.016 3.828-5.016 1.342 0 2.266.55 3.19 1.364l1.342-2.09c-1.21-1.034-2.64-1.694-4.51-1.694-3.938 0-6.688 3.41-6.688 8.074 0 4.356 1.914 7.568 6.204 7.568 3.256 0 5.632-2.156 5.632-5.148 0-3.014-2.31-4.774-5.082-4.774zm-.682 7.59c-1.826 0-2.772-1.254-3.102-3.256.44-1.276 1.606-2.09 3.058-2.09 1.65 0 3.014.99 3.014 2.64 0 1.386-1.122 2.706-2.97 2.706zm10.934-5.522c2.178 0 3.696-1.65 3.696-3.828 0-2.112-1.474-3.828-3.696-3.828-2.178 0-3.674 1.694-3.674 3.85 0 2.112 1.474 3.806 3.674 3.806zm-1.738 7.59h2.024l10.45-15.114h-2.024l-10.45 15.114zm1.738-9.24c-1.012 0-1.782-.902-1.782-2.156 0-1.32.748-2.2 1.782-2.2 1.012 0 1.782.902 1.782 2.2 0 1.276-.748 2.156-1.782 2.156zm8.932 9.46c2.178 0 3.696-1.672 3.696-3.85 0-2.09-1.452-3.828-3.674-3.828-2.2 0-3.696 1.716-3.696 3.85 0 2.156 1.518 3.828 3.674 3.828zm.022-1.65c-1.034 0-1.782-.902-1.782-2.2 0-1.254.726-2.156 1.76-2.156s1.804.902 1.804 2.178c0 1.298-.748 2.178-1.782 2.178zm-62.433-23.57h1.276l3.18-6.721v-.836h-5.28v1.034h3.97l-3.146 6.523zm8.38-1.023c-.12.121-.34.209-.582.209-.32 0-.583-.286-.583-.682v-3.267h1.342v-.924h-1.342v-1.562H77.9v1.562h-.858v.924h.858v3.344c0 .913.616 1.551 1.496 1.551a1.83 1.83 0 0 0 1.133-.407l-.396-.748zm4.15-4.796c-.781 0-1.474.407-1.815.979v-2.849H81.39v7.689h1.078v-3.531c0-.737.715-1.342 1.573-1.342.77 0 1.309.594 1.309 1.441v3.432h1.067v-3.619c0-1.287-.88-2.2-2.134-2.2zm6.504 5.819h2.607c2.442 0 4.18-1.573 4.18-3.784s-1.738-3.773-4.18-3.773h-2.607v7.557zm1.111-1.012v-5.533h1.562c1.749 0 2.97 1.144 2.97 2.761 0 1.628-1.221 2.772-2.97 2.772h-1.562zm9.46.176c-.979 0-1.672-.682-1.815-1.628h4.477c0-2.035-1.001-3.355-2.739-3.355-1.573 0-2.838 1.254-2.838 2.959 0 1.749 1.342 2.992 2.926 2.992.803 0 1.793-.341 2.299-.88l-.682-.704c-.341.352-1.034.616-1.628.616zm-.033-4.015c.979 0 1.518.638 1.639 1.518h-3.41c.176-.924.891-1.518 1.771-1.518zm6.391 4.983c.847 0 1.584-.352 2.134-.913l-.737-.671a1.872 1.872 0 0 1-1.386.638c-1.045 0-1.903-.924-1.903-2.035 0-1.1.858-2.024 1.892-2.024.528 0 1.023.231 1.364.616l.737-.682a2.953 2.953 0 0 0-2.09-.88c-1.628 0-3.003 1.353-3.003 2.97 0 1.617 1.375 2.981 2.992 2.981zm5.727-2.64h2.904v-.99h-2.904v.99zm8.149 2.508h1.122v-7.557h-.902l-1.991 1.353.462.803 1.309-.836v6.237zm6.108 0h1.111v-1.738h1.089v-.979h-1.089v-4.84h-1.32l-3.663 4.928.121.891h3.751v1.738zm-2.651-2.717 2.651-3.575v3.575h-2.651zm8.538 1.694c-.121.121-.341.209-.583.209-.319 0-.583-.286-.583-.682v-3.267h1.342v-.924h-1.342v-1.562h-1.067v1.562h-.858v.924h.858v3.344c0 .913.616 1.551 1.496 1.551a1.83 1.83 0 0 0 1.133-.407l-.396-.748zm4.149-4.796c-.781 0-1.474.407-1.815.979v-2.849h-1.078v7.689h1.078v-3.531c0-.737.715-1.342 1.573-1.342.77 0 1.309.594 1.309 1.441v3.432h1.067v-3.619c0-1.287-.88-2.2-2.134-2.2zm6.504 5.819h2.607c2.442 0 4.18-1.573 4.18-3.784s-1.738-3.773-4.18-3.773h-2.607v7.557zm1.111-1.012v-5.533h1.562c1.749 0 2.97 1.144 2.97 2.761 0 1.628-1.221 2.772-2.97 2.772h-1.562zm9.46.176c-.979 0-1.672-.682-1.815-1.628h4.477c0-2.035-1.001-3.355-2.739-3.355-1.573 0-2.838 1.254-2.838 2.959 0 1.749 1.342 2.992 2.926 2.992.803 0 1.793-.341 2.299-.88l-.682-.704c-.341.352-1.034.616-1.628.616zm-.033-4.015c.979 0 1.518.638 1.639 1.518h-3.41c.176-.924.891-1.518 1.771-1.518zm6.391 4.983c.847 0 1.584-.352 2.134-.913l-.737-.671a1.872 1.872 0 0 1-1.386.638c-1.045 0-1.903-.924-1.903-2.035 0-1.1.858-2.024 1.892-2.024.528 0 1.023.231 1.364.616l.737-.682a2.953 2.953 0 0 0-2.09-.88c-1.628 0-3.003 1.353-3.003 2.97 0 1.617 1.375 2.981 2.992 2.981z"/><g filter="url(#k)"><path fill="url(#l)" d="M204 148.434c-.816-23.561-10.529-45.924-27.162-62.539C160.205 69.281 137.902 59.663 114.467 59L114 75.68c19.217.543 37.505 8.43 51.145 22.053 13.639 13.624 21.603 31.962 22.273 51.282l16.582-.581z"/><path stroke="#fff" stroke-linejoin="round" d="M204.018 148.934a.5.5 0 0 0 .482-.517c-.821-23.687-10.586-46.171-27.309-62.876-16.723-16.704-39.147-26.374-62.71-27.04a.502.502 0 0 0-.514.485l-.467 16.68a.5.5 0 0 0 .486.513c19.089.54 37.256 8.374 50.805 21.908s21.462 31.752 22.127 50.946a.496.496 0 0 0 .517.482l16.583-.581z"/></g><g filter="url(#m)"><rect width="83.797" height="23.504" fill="#4856CC" rx="11.752" transform="matrix(1 0 .0096 .99995 89 5)"/></g><path fill="#fff" d="M104.443 20h1.111v-6.523h2.486v-1.034h-6.072v1.034h2.475V20zm7.72-5.819c-.781 0-1.474.407-1.815.979v-2.849h-1.078V20h1.078v-3.531c0-.737.715-1.342 1.573-1.342.77 0 1.309.594 1.309 1.441V20h1.067v-3.619c0-1.287-.88-2.2-2.134-2.2zm4.231-.814a.667.667 0 0 0 .649-.66.665.665 0 0 0-.649-.649.66.66 0 0 0-.66.649c0 .352.286.66.66.66zm-.55 6.633h1.089v-5.687h-1.089V20zm4.721.132c1.243 0 2.156-.682 2.156-1.76 0-1.133-1.001-1.441-1.936-1.716-.957-.297-1.309-.429-1.309-.869 0-.429.44-.671 1.001-.671.495 0 1.067.187 1.617.528l.484-.803c-.616-.407-1.364-.66-2.101-.66-1.21 0-2.079.682-2.068 1.727 0 .924.649 1.298 1.958 1.661.704.198 1.287.363 1.287.891 0 .44-.44.737-1.078.737-.671 0-1.32-.253-1.925-.693l-.517.781c.682.55 1.595.847 2.431.847zm12.927-5.951c-.858 0-1.584.44-1.848 1.144-.33-.704-1.001-1.144-1.826-1.144-.726 0-1.32.363-1.606.924v-.792h-1.089V20h1.089v-3.553c0-.781.572-1.32 1.386-1.32.715 0 1.21.583 1.21 1.419V20h1.067v-3.553c0-.781.572-1.32 1.386-1.32.715 0 1.21.583 1.21 1.419V20h1.067v-3.619c0-1.287-.858-2.2-2.046-2.2zm6.306 5.951c1.617 0 2.981-1.364 2.981-2.981 0-1.617-1.364-2.97-2.981-2.97-1.628 0-3.003 1.353-3.003 2.97 0 1.617 1.375 2.981 3.003 2.981zm0-.946c-1.045 0-1.914-.924-1.914-2.035 0-1.1.869-2.024 1.914-2.024 1.023 0 1.892.924 1.892 2.024 0 1.111-.869 2.035-1.892 2.035zm7.148-5.005c-.77 0-1.463.396-1.804.957v-.825h-1.089V20h1.089v-3.685c.088-.671.77-1.188 1.562-1.188.77 0 1.309.594 1.309 1.441V20h1.067v-3.619c0-1.287-.88-2.2-2.134-2.2zm6.354 4.796c-.121.121-.341.209-.583.209-.319 0-.583-.286-.583-.682v-3.267h1.342v-.924h-1.342v-1.562h-1.067v1.562h-.858v.924h.858v3.344c0 .913.616 1.551 1.496 1.551a1.83 1.83 0 0 0 1.133-.407l-.396-.748zm4.399-4.796c-.781 0-1.474.407-1.815.979v-2.849h-1.078V20h1.078v-3.531c0-.737.715-1.342 1.573-1.342.77 0 1.309.594 1.309 1.441V20h1.067v-3.619c0-1.287-.88-2.2-2.134-2.2z"/><path fill="#5563DA" d="M57.965 20h1.232l-3.245-7.557h-1.231L51.476 20h1.232l.66-1.54h3.938l.66 1.54zm-4.169-2.541 1.54-3.586 1.54 3.586h-3.08zM60.275 20h1.078v-7.689h-1.078V20zm2.664 0h1.078v-7.689h-1.078V20z"/><rect width="37" height="23" x="39.5" y="5.5" stroke="#5563DA" rx="11.5"/><path fill="#5563DA" d="M208.738 20.132a3.918 3.918 0 0 0 2.783-1.188l-.781-.748c-.506.55-1.221.913-2.002.913-1.507 0-2.783-1.32-2.783-2.893 0-1.562 1.276-2.882 2.783-2.882.781 0 1.496.363 2.002.913l.781-.748a3.874 3.874 0 0 0-2.783-1.188c-2.123 0-3.927 1.782-3.927 3.905 0 2.123 1.804 3.916 3.927 3.916zm7.783-5.819v3.685c-.088.671-.77 1.188-1.562 1.188-.77 0-1.309-.594-1.309-1.441v-3.432h-1.067v3.619c0 1.287.88 2.2 2.134 2.2.77 0 1.463-.396 1.804-.957V20h1.089v-5.687h-1.089zm4.726 5.819c1.243 0 2.156-.682 2.156-1.76 0-1.133-1.001-1.441-1.936-1.716-.957-.297-1.309-.429-1.309-.869 0-.429.44-.671 1.001-.671.495 0 1.067.187 1.617.528l.484-.803c-.616-.407-1.364-.66-2.101-.66-1.21 0-2.079.682-2.068 1.727 0 .924.649 1.298 1.958 1.661.704.198 1.287.363 1.287.891 0 .44-.44.737-1.078.737-.671 0-1.32-.253-1.925-.693l-.517.781c.682.55 1.595.847 2.431.847zm6.084-1.155c-.121.121-.341.209-.583.209-.319 0-.583-.286-.583-.682v-3.267h1.342v-.924h-1.342v-1.562h-1.067v1.562h-.858v.924h.858v3.344c0 .913.616 1.551 1.496 1.551a1.83 1.83 0 0 0 1.133-.407l-.396-.748zm4.201 1.155c1.617 0 2.981-1.364 2.981-2.981 0-1.617-1.364-2.97-2.981-2.97-1.628 0-3.003 1.353-3.003 2.97 0 1.617 1.375 2.981 3.003 2.981zm0-.946c-1.045 0-1.914-.924-1.914-2.035 0-1.1.869-2.024 1.914-2.024 1.023 0 1.892.924 1.892 2.024 0 1.111-.869 2.035-1.892 2.035zm10.613-5.005c-.858 0-1.584.44-1.848 1.144-.33-.704-1.001-1.144-1.826-1.144-.726 0-1.32.363-1.606.924v-.792h-1.089V20h1.089v-3.553c0-.781.572-1.32 1.386-1.32.715 0 1.21.583 1.21 1.419V20h1.067v-3.553c0-.781.572-1.32 1.386-1.32.715 0 1.21.583 1.21 1.419V20h1.067v-3.619c0-1.287-.858-2.2-2.046-2.2zm11.136-1.87v2.981a2.322 2.322 0 0 0-2.024-1.111c-1.496 0-2.618 1.232-2.618 2.97 0 1.749 1.122 2.981 2.618 2.981.88 0 1.584-.418 2.024-1.122V20h1.078v-7.689h-1.078zm-1.76 6.875c-1.045 0-1.782-.847-1.782-2.035 0-1.188.737-2.024 1.782-2.024 1.023 0 1.76.836 1.76 2.024 0 1.188-.737 2.035-1.76 2.035zm6.859-5.005c-.627 0-1.342.165-2.156.572l.396.803c.495-.253 1.045-.473 1.606-.473 1.133 0 1.463.759 1.463 1.474v.176c-.55-.187-1.155-.308-1.716-.308-1.254 0-2.277.759-2.277 1.892 0 1.111.891 1.815 2.101 1.815.693 0 1.474-.319 1.892-.913V20h1.067v-3.443c0-1.408-.847-2.376-2.376-2.376zm-.374 5.093c-.715 0-1.265-.374-1.265-.99s.638-1.045 1.397-1.045c.561 0 1.089.077 1.551.22v.759c-.187.704-.979 1.056-1.683 1.056zm6.987-.297c-.121.121-.341.209-.583.209-.319 0-.583-.286-.583-.682v-3.267h1.342v-.924h-1.342v-1.562h-1.067v1.562h-.858v.924h.858v3.344c0 .913.616 1.551 1.496 1.551a1.83 1.83 0 0 0 1.133-.407l-.396-.748zm4.113.187c-.979 0-1.672-.682-1.815-1.628h4.477c0-2.035-1.001-3.355-2.739-3.355-1.573 0-2.838 1.254-2.838 2.959 0 1.749 1.342 2.992 2.926 2.992.803 0 1.793-.341 2.299-.88l-.682-.704c-.341.352-1.034.616-1.628.616zm-.033-4.015c.979 0 1.518.638 1.639 1.518h-3.41c.176-.924.891-1.518 1.771-1.518zm6.014 4.983c1.243 0 2.156-.682 2.156-1.76 0-1.133-1.001-1.441-1.936-1.716-.957-.297-1.309-.429-1.309-.869 0-.429.44-.671 1.001-.671.495 0 1.067.187 1.617.528l.484-.803c-.616-.407-1.364-.66-2.101-.66-1.21 0-2.079.682-2.068 1.727 0 .924.649 1.298 1.958 1.661.704.198 1.287.363 1.287.891 0 .44-.44.737-1.078.737-.671 0-1.32-.253-1.925-.693l-.517.781c.682.55 1.595.847 2.431.847z"/><rect width="97" height="23" x="192.5" y="5.5" stroke="#5563DA" rx="11.5"/><circle cx="242.5" cy="79" r="5.5" fill="#FFDDA8"/><path fill="#333" d="M258.352 76.124v2.088h4.26v1.368h-4.26V83h-1.5v-8.244h6.204v1.368h-4.704zm8.964 7.02a3.253 3.253 0 0 1-1.656-.444 3.448 3.448 0 0 1-1.212-1.188 3.083 3.083 0 0 1-.456-1.62c0-.576.152-1.112.456-1.608a3.448 3.448 0 0 1 1.212-1.188 3.253 3.253 0 0 1 1.656-.444c.592 0 1.14.148 1.644.444.512.296.92.692 1.224 1.188.304.496.456 1.032.456 1.608 0 .576-.152 1.116-.456 1.62a3.417 3.417 0 0 1-1.224 1.188 3.19 3.19 0 0 1-1.644.444zm0-1.248c.336 0 .648-.088.936-.264.288-.184.516-.428.684-.732a2.018 2.018 0 0 0 0-1.992 1.887 1.887 0 0 0-.684-.732 1.706 1.706 0 0 0-.936-.276c-.336 0-.652.092-.948.276-.288.176-.52.42-.696.732a2.002 2.002 0 0 0-.252.984c0 .36.084.696.252 1.008.176.304.408.548.696.732.296.176.612.264.948.264zm7.593 1.248a3.253 3.253 0 0 1-1.656-.444 3.448 3.448 0 0 1-1.212-1.188 3.083 3.083 0 0 1-.456-1.62c0-.576.152-1.112.456-1.608a3.448 3.448 0 0 1 1.212-1.188 3.253 3.253 0 0 1 1.656-.444c.592 0 1.14.148 1.644.444.512.296.92.692 1.224 1.188.304.496.456 1.032.456 1.608 0 .576-.152 1.116-.456 1.62a3.417 3.417 0 0 1-1.224 1.188 3.19 3.19 0 0 1-1.644.444zm0-1.248c.336 0 .648-.088.936-.264.288-.184.516-.428.684-.732a2.018 2.018 0 0 0 0-1.992 1.887 1.887 0 0 0-.684-.732 1.706 1.706 0 0 0-.936-.276c-.336 0-.652.092-.948.276-.288.176-.52.42-.696.732a2.002 2.002 0 0 0-.252.984c0 .36.084.696.252 1.008.176.304.408.548.696.732.296.176.612.264.948.264zm10.774-7.284V83h-1.464v-.96a2.578 2.578 0 0 1-.924.816 2.606 2.606 0 0 1-1.224.288 2.69 2.69 0 0 1-1.464-.408 2.896 2.896 0 0 1-1.02-1.164c-.24-.496-.36-1.056-.36-1.68 0-.624.12-1.18.36-1.668a2.81 2.81 0 0 1 1.02-1.152c.432-.28.92-.42 1.464-.42.448 0 .856.096 1.224.288.368.192.676.464.924.816v-3.144h1.464zm-3.216 7.284c.512 0 .932-.188 1.26-.564.328-.376.492-.856.492-1.44s-.164-1.06-.492-1.428a1.597 1.597 0 0 0-1.26-.564c-.52 0-.948.188-1.284.564-.336.368-.504.844-.504 1.428s.168 1.064.504 1.44c.336.376.764.564 1.284.564zm13.939 1.26-.936-.972c-.712.64-1.524.96-2.436.96-.52 0-.988-.096-1.404-.288a2.287 2.287 0 0 1-.96-.816c-.232-.36-.348-.784-.348-1.272 0-.536.144-.988.432-1.356.288-.376.748-.708 1.38-.996a4.013 4.013 0 0 1-.48-.864 2.474 2.474 0 0 1-.144-.852c0-.368.096-.708.288-1.02.2-.312.472-.56.816-.744a2.449 2.449 0 0 1 1.152-.276c.416 0 .792.092 1.128.276.336.176.596.42.78.732.192.304.288.644.288 1.02 0 .456-.152.836-.456 1.14-.304.296-.788.596-1.452.9.4.472.888 1.012 1.464 1.62a8.361 8.361 0 0 0 .84-1.62l1.116.528c-.392.792-.772 1.444-1.14 1.956l1.32 1.38-1.248.564zm-2.616-7.404a.967.967 0 0 0-.696.264.904.904 0 0 0-.276.684c0 .2.044.396.132.588.088.192.232.408.432.648.48-.192.812-.376.996-.552a.885.885 0 0 0 .288-.684.934.934 0 0 0-.252-.672.811.811 0 0 0-.624-.276zm-.612 6.228c.488 0 .984-.212 1.488-.636a47.685 47.685 0 0 1-1.86-2.052c-.344.192-.604.404-.78.636-.168.224-.252.48-.252.768 0 .392.136.704.408.936.272.232.604.348.996.348zm15.24-7.368V83h-1.464v-.96a2.578 2.578 0 0 1-.924.816 2.606 2.606 0 0 1-1.224.288 2.69 2.69 0 0 1-1.464-.408 2.896 2.896 0 0 1-1.02-1.164c-.24-.496-.36-1.056-.36-1.68 0-.624.12-1.18.36-1.668a2.81 2.81 0 0 1 1.02-1.152c.432-.28.92-.42 1.464-.42.448 0 .856.096 1.224.288.368.192.676.464.924.816v-3.144h1.464zm-3.216 7.284c.512 0 .932-.188 1.26-.564.328-.376.492-.856.492-1.44s-.164-1.06-.492-1.428a1.597 1.597 0 0 0-1.26-.564c-.52 0-.948.188-1.284.564-.336.368-.504.844-.504 1.428s.168 1.064.504 1.44c.336.376.764.564 1.284.564zm6.364-3.9c.2-.416.492-.744.876-.984.392-.24.84-.36 1.344-.36V77.9c-.664 0-1.2.18-1.608.54-.408.36-.612.836-.612 1.428V83h-1.464v-6.204h1.464v1.2zm4.048-2.136a.82.82 0 0 1-.6-.252.826.826 0 0 1-.24-.588c0-.224.08-.416.24-.576a.82.82 0 0 1 .6-.252c.224 0 .416.084.576.252.168.16.252.352.252.576 0 .224-.084.42-.252.588a.767.767 0 0 1-.576.252zm-.744.936h1.464V83h-1.464v-6.204zm6.466-.144c.448 0 .844.104 1.188.312.352.2.624.484.816.852.2.36.3.772.3 1.236V83h-1.416v-3.66c0-.424-.124-.768-.372-1.032a1.19 1.19 0 0 0-.936-.408c-.384 0-.72.112-1.008.336-.28.224-.444.504-.492.84V83h-1.464v-6.204h1.464v.828c.192-.296.46-.532.804-.708a2.415 2.415 0 0 1 1.116-.264zm7.194 2.916L331.002 83h-1.704l-1.752-2.472-.876.924V83h-1.464v-8.388h1.464v5.124l2.688-2.94h1.728l-2.556 2.772zm5.73 3.576c-.48 0-.96-.08-1.44-.24a4.25 4.25 0 0 1-1.272-.696l.66-1.02c.664.48 1.356.72 2.076.72.296 0 .536-.056.72-.168.184-.12.276-.276.276-.468a.51.51 0 0 0-.3-.48c-.192-.112-.508-.228-.948-.348a7.248 7.248 0 0 1-1.224-.408 1.964 1.964 0 0 1-.72-.552c-.176-.232-.264-.524-.264-.876 0-.384.096-.724.288-1.02.2-.296.476-.524.828-.684.36-.168.768-.252 1.224-.252.416 0 .828.068 1.236.204.408.128.788.308 1.14.54l-.612 1.068a3.674 3.674 0 0 0-.9-.42 2.872 2.872 0 0 0-.864-.144 1.28 1.28 0 0 0-.66.156c-.168.096-.252.228-.252.396 0 .128.04.236.12.324.08.08.204.152.372.216s.428.148.78.252c.448.12.82.248 1.116.384.296.136.544.332.744.588.208.248.312.572.312.972 0 .592-.224 1.068-.672 1.428-.448.352-1.036.528-1.764.528zM348.94 83l-2.16-3.768v-.888h.72c.288 0 .54-.04.756-.12.224-.088.408-.212.552-.372.152-.16.256-.352.312-.576h-2.34v-.888h2.328a1.452 1.452 0 0 0-.252-.552 1.105 1.105 0 0 0-.456-.372 1.438 1.438 0 0 0-.672-.144h-.948v-.888h5.412v.888h-1.884c.136.152.248.316.336.492.096.176.16.368.192.576h1.356v.888h-1.332c-.08.592-.308 1.056-.684 1.392-.376.328-.86.552-1.452.672l2.352 3.66h-2.136zm7.527.144c-1.248 0-2.276-.424-3.084-1.272l.888-1.068c.712.696 1.452 1.044 2.22 1.044.496 0 .892-.136 1.188-.408.304-.28.456-.628.456-1.044 0-.424-.152-.764-.456-1.02-.304-.256-.7-.384-1.188-.384-.624 0-1.184.192-1.68.576l-1.02-.432.12-4.38h5.28v1.368h-3.876l-.072 2.124a2.87 2.87 0 0 1 1.668-.504c.496 0 .952.104 1.368.312.416.2.744.496.984.888.248.392.372.856.372 1.392 0 .56-.132 1.052-.396 1.476a2.625 2.625 0 0 1-1.116.984c-.48.232-1.032.348-1.656.348zm4.276-1.368 3.036-2.424c.512-.408.876-.78 1.092-1.116.216-.336.324-.676.324-1.02 0-.376-.14-.68-.42-.912a1.466 1.466 0 0 0-.984-.348c-.408 0-.78.1-1.116.3-.328.192-.652.48-.972.864l-.972-.9c.816-1.072 1.852-1.608 3.108-1.608.544 0 1.032.108 1.464.324.44.216.784.52 1.032.912.256.392.384.836.384 1.332 0 .552-.148 1.068-.444 1.548-.288.472-.78.976-1.476 1.512l-1.728 1.392h3.732V83h-6.06v-1.224zm7.231 0 3.036-2.424c.512-.408.876-.78 1.092-1.116.216-.336.324-.676.324-1.02 0-.376-.14-.68-.42-.912a1.466 1.466 0 0 0-.984-.348c-.408 0-.78.1-1.116.3-.328.192-.652.48-.972.864l-.972-.9c.816-1.072 1.852-1.608 3.108-1.608.544 0 1.032.108 1.464.324.44.216.784.52 1.032.912.256.392.384.836.384 1.332 0 .552-.148 1.068-.444 1.548-.288.472-.78.976-1.476 1.512l-1.728 1.392h3.732V83h-6.06v-1.224z"/><circle cx="242.5" cy="107" r="5.25" fill="#FF9C9C" stroke="#fff" stroke-width=".5"/><path fill="#666" fill-opacity=".66" d="M260.312 106.898h2.024v1.584a3.21 3.21 0 0 1-1.87.627c-1.518 0-2.794-1.32-2.794-2.893 0-1.562 1.276-2.882 2.794-2.882.781 0 1.672.352 2.189.913l.781-.748c-.715-.737-1.903-1.188-2.97-1.188-2.123 0-3.938 1.782-3.938 3.905 0 2.123 1.815 3.916 3.938 3.916 1.067 0 2.255-.462 2.97-1.188v-3.014h-3.124v.968zm5.81-1.496v-1.089h-1.089V110h1.089v-3.234c.099-.99.935-1.639 2.112-1.639v-.946c-.979 0-1.749.473-2.112 1.221zm5.697 4.73c1.617 0 2.981-1.364 2.981-2.981 0-1.617-1.364-2.97-2.981-2.97-1.628 0-3.003 1.353-3.003 2.97 0 1.617 1.375 2.981 3.003 2.981zm0-.946c-1.045 0-1.914-.924-1.914-2.035 0-1.1.869-2.024 1.914-2.024 1.023 0 1.892.924 1.892 2.024 0 1.111-.869 2.035-1.892 2.035zm6.939.946c.847 0 1.584-.352 2.134-.913l-.737-.671a1.872 1.872 0 0 1-1.386.638c-1.045 0-1.903-.924-1.903-2.035 0-1.1.858-2.024 1.892-2.024.528 0 1.023.231 1.364.616l.737-.682a2.953 2.953 0 0 0-2.09-.88c-1.628 0-3.003 1.353-3.003 2.97 0 1.617 1.375 2.981 2.992 2.981zm5.907-.968c-.979 0-1.672-.682-1.815-1.628h4.477c0-2.035-1.001-3.355-2.739-3.355-1.573 0-2.838 1.254-2.838 2.959 0 1.749 1.342 2.992 2.926 2.992.803 0 1.793-.341 2.299-.88l-.682-.704c-.341.352-1.034.616-1.628.616zm-.033-4.015c.979 0 1.518.638 1.639 1.518h-3.41c.176-.924.891-1.518 1.771-1.518zm5.101.253v-1.089h-1.089V110h1.089v-3.234c.099-.99.935-1.639 2.112-1.639v-.946c-.979 0-1.749.473-2.112 1.221zm3.713-2.035a.667.667 0 0 0 .649-.66.665.665 0 0 0-.649-.649.66.66 0 0 0-.66.649c0 .352.286.66.66.66zm-.55 6.633h1.089v-5.687h-1.089V110zm5.272-.836c-.979 0-1.672-.682-1.815-1.628h4.477c0-2.035-1.001-3.355-2.739-3.355-1.573 0-2.838 1.254-2.838 2.959 0 1.749 1.342 2.992 2.926 2.992.803 0 1.793-.341 2.299-.88l-.682-.704c-.341.352-1.034.616-1.628.616zm-.033-4.015c.979 0 1.518.638 1.639 1.518h-3.41c.176-.924.891-1.518 1.771-1.518zm6.014 4.983c1.243 0 2.156-.682 2.156-1.76 0-1.133-1.001-1.441-1.936-1.716-.957-.297-1.309-.429-1.309-.869 0-.429.44-.671 1.001-.671.495 0 1.067.187 1.617.528l.484-.803c-.616-.407-1.364-.66-2.101-.66-1.21 0-2.079.682-2.068 1.727 0 .924.649 1.298 1.958 1.661.704.198 1.287.363 1.287.891 0 .44-.44.737-1.078.737-.671 0-1.32-.253-1.925-.693l-.517.781c.682.55 1.595.847 2.431.847z"/><path fill="#333" d="m321.948 110-2.079-3.63v-.484h.242c.389 0 .715-.037.979-.11.271-.073.484-.194.638-.363.154-.169.246-.4.275-.693h-2.134v-.704h2.123a1.318 1.318 0 0 0-.308-.66 1.326 1.326 0 0 0-.627-.385 3.181 3.181 0 0 0-.946-.121h-.242v-.704h4.554v.704h-2.079a1.713 1.713 0 0 1 .627 1.166h1.452v.704h-1.43c-.051.535-.257.953-.616 1.254-.352.293-.821.48-1.408.561L323.07 110h-1.122zm6.581.132c1.639 0 2.728-.924 2.728-2.2 0-1.056-.825-1.628-1.617-1.804.792-.242 1.452-.825 1.452-1.76 0-1.21-1.067-2.057-2.596-2.057-1.232 0-2.09.572-2.673 1.331l.693.682c.528-.616 1.111-1.012 1.903-1.012.88 0 1.54.506 1.54 1.21 0 .759-.671 1.177-1.628 1.177l-.825-.011v.99h.825c1.133-.011 1.782.396 1.782 1.177 0 .759-.627 1.276-1.606 1.276-.869 0-1.606-.407-2.112-1.023l-.715.737c.583.726 1.562 1.287 2.849 1.287zm7.543-.132h1.111v-1.738h1.089v-.979h-1.089v-4.84h-1.32l-3.663 4.928.121.891h3.751V110zm-2.651-2.717 2.651-3.575v3.575h-2.651zm8.7 2.849c1.584 0 2.849-.814 2.849-2.123 0-.924-.693-1.595-1.595-1.914.77-.297 1.408-.858 1.408-1.76 0-1.254-1.254-2.024-2.662-2.024-1.364 0-2.651.737-2.651 2.024 0 .858.583 1.43 1.408 1.76-.902.308-1.606.979-1.606 1.914 0 1.298 1.254 2.123 2.849 2.123zm0-4.455c-.671-.044-1.54-.44-1.54-1.221 0-.671.671-1.166 1.54-1.166s1.551.495 1.551 1.166c0 .759-.858 1.177-1.551 1.221zm0 3.476c-.968 0-1.727-.506-1.727-1.243 0-.803.99-1.287 1.727-1.309.748.022 1.727.506 1.727 1.309 0 .737-.759 1.243-1.727 1.243z"/><circle cx="242.5" cy="131" r="5.25" fill="#95DDB8" stroke="#fff" stroke-width=".5"/><path fill="#666" fill-opacity=".66" d="M262.38 127.477v-1.034h-5.555V134h5.555v-1.034h-4.433v-2.299h4.004v-1.034h-4.004v-2.156h4.433zm4.255.704c-.77 0-1.463.396-1.804.957v-.825h-1.089V134h1.089v-3.685c.088-.671.77-1.188 1.562-1.188.77 0 1.309.594 1.309 1.441V134h1.067v-3.619c0-1.287-.88-2.2-2.134-2.2zm6.354 4.796c-.121.121-.341.209-.583.209-.319 0-.583-.286-.583-.682v-3.267h1.342v-.924h-1.342v-1.562h-1.067v1.562h-.858v.924h.858v3.344c0 .913.616 1.551 1.496 1.551a1.83 1.83 0 0 0 1.133-.407l-.396-.748zm4.113.187c-.979 0-1.672-.682-1.815-1.628h4.477c0-2.035-1.001-3.355-2.739-3.355-1.573 0-2.838 1.254-2.838 2.959 0 1.749 1.342 2.992 2.926 2.992.803 0 1.793-.341 2.299-.88l-.682-.704c-.341.352-1.034.616-1.628.616zm-.033-4.015c.979 0 1.518.638 1.639 1.518h-3.41c.176-.924.891-1.518 1.771-1.518zm5.101.253v-1.089h-1.089V134h1.089v-3.234c.099-.99.935-1.639 2.112-1.639v-.946c-.979 0-1.749.473-2.112 1.221zm5.837 3.575c-.121.121-.341.209-.583.209-.319 0-.583-.286-.583-.682v-3.267h1.342v-.924h-1.342v-1.562h-1.067v1.562h-.858v.924h.858v3.344c0 .913.616 1.551 1.496 1.551a1.83 1.83 0 0 0 1.133-.407l-.396-.748zm3.893-4.796c-.627 0-1.342.165-2.156.572l.396.803c.495-.253 1.045-.473 1.606-.473 1.133 0 1.463.759 1.463 1.474v.176c-.55-.187-1.155-.308-1.716-.308-1.254 0-2.277.759-2.277 1.892 0 1.111.891 1.815 2.101 1.815.693 0 1.474-.319 1.892-.913V134h1.067v-3.443c0-1.408-.847-2.376-2.376-2.376zm-.374 5.093c-.715 0-1.265-.374-1.265-.99s.638-1.045 1.397-1.045c.561 0 1.089.077 1.551.22v.759c-.187.704-.979 1.056-1.683 1.056zm4.864-5.907a.667.667 0 0 0 .649-.66.665.665 0 0 0-.649-.649.66.66 0 0 0-.66.649c0 .352.286.66.66.66zm-.55 6.633h1.089v-5.687h-1.089V134zm5.557-5.819c-.77 0-1.463.396-1.804.957v-.825h-1.089V134h1.089v-3.685c.088-.671.77-1.188 1.562-1.188.77 0 1.309.594 1.309 1.441V134h1.067v-3.619c0-1.287-.88-2.2-2.134-2.2zm10.05 0c-.858 0-1.584.44-1.848 1.144-.33-.704-1.001-1.144-1.826-1.144-.726 0-1.32.363-1.606.924v-.792h-1.089V134h1.089v-3.553c0-.781.572-1.32 1.386-1.32.715 0 1.21.583 1.21 1.419V134h1.067v-3.553c0-.781.572-1.32 1.386-1.32.715 0 1.21.583 1.21 1.419V134h1.067v-3.619c0-1.287-.858-2.2-2.046-2.2zm6.218 4.983c-.979 0-1.672-.682-1.815-1.628h4.477c0-2.035-1.001-3.355-2.739-3.355-1.573 0-2.838 1.254-2.838 2.959 0 1.749 1.342 2.992 2.926 2.992.803 0 1.793-.341 2.299-.88l-.682-.704c-.341.352-1.034.616-1.628.616zm-.033-4.015c.979 0 1.518.638 1.639 1.518h-3.41c.176-.924.891-1.518 1.771-1.518zm6.85-.968c-.77 0-1.463.396-1.804.957v-.825h-1.089V134h1.089v-3.685c.088-.671.77-1.188 1.562-1.188.77 0 1.309.594 1.309 1.441V134h1.067v-3.619c0-1.287-.88-2.2-2.134-2.2zm6.354 4.796c-.121.121-.341.209-.583.209-.319 0-.583-.286-.583-.682v-3.267h1.342v-.924h-1.342v-1.562h-1.067v1.562h-.858v.924h.858v3.344c0 .913.616 1.551 1.496 1.551a1.83 1.83 0 0 0 1.133-.407l-.396-.748z"/><path fill="#333" d="m346.948 134-2.079-3.63v-.484h.242c.389 0 .715-.037.979-.11.271-.073.484-.194.638-.363.154-.169.246-.4.275-.693h-2.134v-.704h2.123a1.318 1.318 0 0 0-.308-.66 1.326 1.326 0 0 0-.627-.385 3.181 3.181 0 0 0-.946-.121h-.242v-.704h4.554v.704h-2.079a1.713 1.713 0 0 1 .627 1.166h1.452v.704h-1.43c-.051.535-.257.953-.616 1.254-.352.293-.821.48-1.408.561L348.07 134h-1.122zm3.864-.913 2.772-2.288c.499-.418.854-.799 1.067-1.144.22-.345.33-.689.33-1.034 0-.396-.139-.711-.418-.946a1.491 1.491 0 0 0-1.012-.363c-.396 0-.752.095-1.067.286-.315.191-.612.469-.891.836l-.748-.66c.704-.975 1.621-1.463 2.75-1.463.469 0 .895.095 1.276.286.389.191.693.462.913.814.227.345.341.741.341 1.188 0 .506-.136.979-.407 1.419-.271.44-.73.924-1.375 1.452l-1.771 1.496h3.619V134h-5.379v-.913zm9.82-3.861c.469 0 .894.095 1.276.286.388.191.696.466.924.825.227.352.341.77.341 1.254 0 .477-.118.909-.352 1.298a2.451 2.451 0 0 1-.979.913c-.418.22-.888.33-1.408.33-1.005 0-1.757-.345-2.255-1.034-.492-.697-.737-1.617-.737-2.761 0-.755.135-1.437.407-2.046.278-.616.66-1.1 1.144-1.452a2.765 2.765 0 0 1 1.65-.528c.814 0 1.547.29 2.2.869l-.572.858a3.06 3.06 0 0 0-.781-.539 1.893 1.893 0 0 0-.858-.187c-.382 0-.726.128-1.034.385-.308.249-.554.598-.737 1.045-.184.44-.279.935-.286 1.485.234-.315.531-.561.891-.737a2.614 2.614 0 0 1 1.166-.264zm-.242 3.96c.33 0 .616-.073.858-.22.249-.147.44-.337.572-.572.139-.242.209-.491.209-.748 0-.447-.158-.807-.473-1.078-.316-.271-.712-.407-1.188-.407-.418 0-.781.114-1.089.341-.308.22-.514.513-.616.88.102.565.297 1.008.583 1.331.286.315.667.473 1.144.473zm5.399-5.423-1.309.836-.462-.803 1.991-1.353h.902V134h-1.122v-6.237z"/><circle cx="242.5" cy="155" r="5.25" fill="#F1F093" stroke="#fff" stroke-width=".5"/><path fill="#666" fill-opacity=".66" d="M262.061 150.443v3.19h-4.125v-3.19h-1.111V158h1.111v-3.333h4.125V158h1.111v-7.557h-1.111zm5.33 6.721c-.979 0-1.672-.682-1.815-1.628h4.477c0-2.035-1.001-3.355-2.739-3.355-1.573 0-2.838 1.254-2.838 2.959 0 1.749 1.342 2.992 2.926 2.992.803 0 1.793-.341 2.299-.88l-.682-.704c-.341.352-1.034.616-1.628.616zm-.033-4.015c.979 0 1.518.638 1.639 1.518h-3.41c.176-.924.891-1.518 1.771-1.518zm6.344-.968c-.627 0-1.342.165-2.156.572l.396.803c.495-.253 1.045-.473 1.606-.473 1.133 0 1.463.759 1.463 1.474v.176c-.55-.187-1.155-.308-1.716-.308-1.254 0-2.277.759-2.277 1.892 0 1.111.891 1.815 2.101 1.815.693 0 1.474-.319 1.892-.913V158h1.067v-3.443c0-1.408-.847-2.376-2.376-2.376zm-.374 5.093c-.715 0-1.265-.374-1.265-.99s.638-1.045 1.397-1.045c.561 0 1.089.077 1.551.22v.759c-.187.704-.979 1.056-1.683 1.056zm4.325.726h1.078v-7.689h-1.078V158zm5.326-1.023c-.121.121-.341.209-.583.209-.319 0-.583-.286-.583-.682v-3.267h1.342v-.924h-1.342v-1.562h-1.067v1.562h-.858v.924h.858v3.344c0 .913.616 1.551 1.496 1.551a1.83 1.83 0 0 0 1.133-.407l-.396-.748zm4.399-4.796c-.781 0-1.474.407-1.815.979v-2.849h-1.078V158h1.078v-3.531c0-.737.715-1.342 1.573-1.342.77 0 1.309.594 1.309 1.441V158h1.067v-3.619c0-1.287-.88-2.2-2.134-2.2z"/><path fill="#333" d="m305.948 158-2.079-3.63v-.484h.242c.389 0 .715-.037.979-.11.271-.073.484-.194.638-.363.154-.169.246-.4.275-.693h-2.134v-.704h2.123a1.318 1.318 0 0 0-.308-.66 1.326 1.326 0 0 0-.627-.385 3.181 3.181 0 0 0-.946-.121h-.242v-.704h4.554v.704h-2.079a1.713 1.713 0 0 1 .627 1.166h1.452v.704h-1.43c-.051.535-.257.953-.616 1.254-.352.293-.821.48-1.408.561L307.07 158h-1.122zm5.36 0h1.122v-7.557h-.902l-1.991 1.353.462.803 1.309-.836V158zm5.467.132c1.584 0 2.849-.814 2.849-2.123 0-.924-.693-1.595-1.595-1.914.77-.297 1.408-.858 1.408-1.76 0-1.254-1.254-2.024-2.662-2.024-1.364 0-2.651.737-2.651 2.024 0 .858.583 1.43 1.408 1.76-.902.308-1.606.979-1.606 1.914 0 1.298 1.254 2.123 2.849 2.123zm0-4.455c-.671-.044-1.54-.44-1.54-1.221 0-.671.671-1.166 1.54-1.166s1.551.495 1.551 1.166c0 .759-.858 1.177-1.551 1.221zm0 3.476c-.968 0-1.727-.506-1.727-1.243 0-.803.99-1.287 1.727-1.309.748.022 1.727.506 1.727 1.309 0 .737-.759 1.243-1.727 1.243zm6.714-6.842c-1.595 0-2.739 1.089-2.739 2.541 0 1.496 1.155 2.365 2.541 2.365.836 0 1.595-.374 2.057-1.001-.033 1.672-.902 2.915-2.057 2.915-.693 0-1.166-.297-1.639-.726l-.572.858c.583.517 1.276.869 2.2.869 1.848 0 3.201-1.738 3.201-4.026 0-2.156-.891-3.795-2.992-3.795zm.066 3.971c-.924 0-1.661-.561-1.661-1.485 0-.759.616-1.54 1.639-1.54.99 0 1.529.726 1.727 1.804-.198.737-.869 1.221-1.705 1.221z"/><circle cx="242.5" cy="179" r="5.25" fill="#A2DFEC" stroke="#fff" stroke-width=".5"/><path fill="#666" fill-opacity=".66" d="M259.531 182.121c1.782 0 2.75-.968 2.75-2.244 0-1.353-1.045-1.859-2.552-2.211-1.243-.297-1.892-.539-1.892-1.243 0-.605.594-1.144 1.441-1.144.77 0 1.529.341 2.167.924l.638-.836c-.726-.638-1.595-1.067-2.761-1.067-1.518 0-2.618.957-2.618 2.222 0 1.364 1.023 1.826 2.563 2.189 1.265.286 1.892.561 1.892 1.276 0 .605-.539 1.155-1.584 1.155-1.023 0-1.815-.418-2.486-1.056l-.671.825c.803.77 1.848 1.21 3.113 1.21zm6.975-5.94c-.781 0-1.474.407-1.815.979v-2.849h-1.078V182h1.078v-3.531c0-.737.715-1.342 1.573-1.342.77 0 1.309.594 1.309 1.441V182h1.067v-3.619c0-1.287-.88-2.2-2.134-2.2zm6.387 5.951c1.617 0 2.981-1.364 2.981-2.981 0-1.617-1.364-2.97-2.981-2.97-1.628 0-3.003 1.353-3.003 2.97 0 1.617 1.375 2.981 3.003 2.981zm0-.946c-1.045 0-1.914-.924-1.914-2.035 0-1.1.869-2.024 1.914-2.024 1.023 0 1.892.924 1.892 2.024 0 1.111-.869 2.035-1.892 2.035zm7.412-5.005c-.88 0-1.584.418-2.024 1.111v-.979h-1.078v7.579h1.078v-2.882a2.308 2.308 0 0 0 2.024 1.122c1.496 0 2.618-1.232 2.618-2.981 0-1.738-1.122-2.97-2.618-2.97zm-.264 5.005c-1.023 0-1.76-.847-1.76-2.035 0-1.188.737-2.024 1.76-2.024 1.045 0 1.782.836 1.782 2.024 0 1.188-.737 2.035-1.782 2.035zm7.354-5.005c-.88 0-1.584.418-2.024 1.111v-.979h-1.078v7.579h1.078v-2.882a2.308 2.308 0 0 0 2.024 1.122c1.496 0 2.618-1.232 2.618-2.981 0-1.738-1.122-2.97-2.618-2.97zm-.264 5.005c-1.023 0-1.76-.847-1.76-2.035 0-1.188.737-2.024 1.76-2.024 1.045 0 1.782.836 1.782 2.024 0 1.188-.737 2.035-1.782 2.035zm4.736-5.819a.667.667 0 0 0 .649-.66.665.665 0 0 0-.649-.649.66.66 0 0 0-.66.649c0 .352.286.66.66.66zm-.55 6.633h1.089v-5.687h-1.089V182zm5.557-5.819c-.77 0-1.463.396-1.804.957v-.825h-1.089V182h1.089v-3.685c.088-.671.77-1.188 1.562-1.188.77 0 1.309.594 1.309 1.441V182h1.067v-3.619c0-1.287-.88-2.2-2.134-2.2zm8.015.132v.913c-.429-.638-1.155-1.045-2.013-1.045-1.496 0-2.585 1.111-2.585 2.695 0 1.584 1.089 2.706 2.585 2.706.858 0 1.562-.385 2.013-1.034v.825c0 .99-.737 1.573-1.958 1.573-.682 0-1.364-.231-1.782-.627l-.429.814c.539.44 1.419.759 2.376.759 1.683 0 2.882-1.034 2.882-2.497v-5.082h-1.089zm-1.738 4.323c-1.012 0-1.727-.726-1.727-1.76 0-1.023.715-1.749 1.727-1.749s1.738.726 1.738 1.749c0 1.034-.726 1.76-1.738 1.76z"/><path fill="#333" d="m321.948 182-2.079-3.63v-.484h.242c.389 0 .715-.037.979-.11.271-.073.484-.194.638-.363.154-.169.246-.4.275-.693h-2.134v-.704h2.123a1.318 1.318 0 0 0-.308-.66 1.326 1.326 0 0 0-.627-.385 3.181 3.181 0 0 0-.946-.121h-.242v-.704h4.554v.704h-2.079a1.713 1.713 0 0 1 .627 1.166h1.452v.704h-1.43c-.051.535-.257.953-.616 1.254-.352.293-.821.48-1.408.561L323.07 182h-1.122zm5.36 0h1.122v-7.557h-.902l-1.991 1.353.462.803 1.309-.836V182zm5.335.132c1.639 0 2.728-.924 2.728-2.2 0-1.056-.825-1.628-1.617-1.804.792-.242 1.452-.825 1.452-1.76 0-1.21-1.067-2.057-2.596-2.057-1.232 0-2.09.572-2.673 1.331l.693.682c.528-.616 1.111-1.012 1.903-1.012.88 0 1.54.506 1.54 1.21 0 .759-.671 1.177-1.628 1.177l-.825-.011v.99h.825c1.133-.011 1.782.396 1.782 1.177 0 .759-.627 1.276-1.606 1.276-.869 0-1.606-.407-2.112-1.023l-.715.737c.583.726 1.562 1.287 2.849 1.287zm7.115 0c1.881 0 3.223-1.617 3.223-3.916 0-2.288-1.342-3.905-3.223-3.905-1.903 0-3.234 1.617-3.234 3.905 0 2.299 1.331 3.916 3.234 3.916zm0-1.023c-1.232 0-2.101-1.199-2.101-2.893 0-1.694.869-2.882 2.101-2.882 1.221 0 2.079 1.188 2.079 2.882 0 1.694-.858 2.893-2.079 2.893z"/><circle cx="242.5" cy="203" r="5.25" fill="#B2B2B2" stroke="#fff" stroke-width=".5"/><path fill="#666" fill-opacity=".66" d="M260.455 206.132c2.123 0 3.905-1.793 3.905-3.916s-1.782-3.905-3.905-3.905c-2.123 0-3.927 1.782-3.927 3.905 0 2.123 1.804 3.916 3.927 3.916zm0-1.023c-1.507 0-2.783-1.32-2.783-2.893 0-1.562 1.276-2.882 2.783-2.882s2.772 1.32 2.772 2.882c0 1.573-1.265 2.893-2.772 2.893zm7.894-.132c-.121.121-.341.209-.583.209-.319 0-.583-.286-.583-.682v-3.267h1.342v-.924h-1.342v-1.562h-1.067v1.562h-.858v.924h.858v3.344c0 .913.616 1.551 1.496 1.551a1.83 1.83 0 0 0 1.133-.407l-.396-.748zm4.399-4.796c-.782 0-1.474.407-1.815.979v-2.849h-1.078V206h1.078v-3.531c0-.737.715-1.342 1.573-1.342.77 0 1.309.594 1.309 1.441V206h1.067v-3.619c0-1.287-.88-2.2-2.134-2.2zm6.298 4.983c-.979 0-1.672-.682-1.815-1.628h4.477c0-2.035-1.001-3.355-2.739-3.355-1.573 0-2.838 1.254-2.838 2.959 0 1.749 1.342 2.992 2.926 2.992.803 0 1.793-.341 2.299-.88l-.682-.704c-.341.352-1.034.616-1.628.616zm-.033-4.015c.979 0 1.518.638 1.639 1.518h-3.41c.176-.924.891-1.518 1.771-1.518zm5.102.253v-1.089h-1.089V206h1.089v-3.234c.099-.99.935-1.639 2.112-1.639v-.946c-.979 0-1.749.473-2.112 1.221zm5.231 4.73c1.243 0 2.156-.682 2.156-1.76 0-1.133-1.001-1.441-1.936-1.716-.957-.297-1.309-.429-1.309-.869 0-.429.44-.671 1.001-.671.495 0 1.067.187 1.617.528l.484-.803c-.616-.407-1.364-.66-2.101-.66-1.21 0-2.079.682-2.068 1.727 0 .924.649 1.298 1.958 1.661.704.198 1.287.363 1.287.891 0 .44-.44.737-1.078.737-.671 0-1.32-.253-1.925-.693l-.517.781c.682.55 1.595.847 2.431.847z"/><path fill="#333" d="m306.948 206-2.079-3.63v-.484h.242c.389 0 .715-.037.979-.11.271-.073.484-.194.638-.363.154-.169.246-.4.275-.693h-2.134v-.704h2.123a1.318 1.318 0 0 0-.308-.66 1.326 1.326 0 0 0-.627-.385 3.181 3.181 0 0 0-.946-.121h-.242v-.704h4.554v.704h-2.079a1.713 1.713 0 0 1 .627 1.166h1.452v.704h-1.43c-.051.535-.257.953-.616 1.254-.352.293-.821.48-1.408.561L308.07 206h-1.122zm7.175.132c1.881 0 3.223-1.617 3.223-3.916 0-2.288-1.342-3.905-3.223-3.905-1.903 0-3.234 1.617-3.234 3.905 0 2.299 1.331 3.916 3.234 3.916zm0-1.023c-1.232 0-2.101-1.199-2.101-2.893 0-1.694.869-2.882 2.101-2.882 1.221 0 2.079 1.188 2.079 2.882 0 1.694-.858 2.893-2.079 2.893zm7.648 1.023c1.881 0 3.223-1.617 3.223-3.916 0-2.288-1.342-3.905-3.223-3.905-1.903 0-3.234 1.617-3.234 3.905 0 2.299 1.331 3.916 3.234 3.916zm0-1.023c-1.232 0-2.101-1.199-2.101-2.893 0-1.694.869-2.882 2.101-2.882 1.221 0 2.079 1.188 2.079 2.882 0 1.694-.858 2.893-2.079 2.893z"/><g filter="url(#n)"><path fill="url(#o)" d="M103.06 71.565a77.002 77.002 0 0 1 14.038-1.88l.413 11.89a64.685 64.685 0 0 0-11.792 1.58l-2.659-11.59z"/></g><g filter="url(#p)"><path fill="url(#q)" d="M78.976 80.257a75.993 75.993 0 0 1 25.016-9.09l2.089 11.982a63.834 63.834 0 0 0-21.014 7.634l-6.091-10.526z"/></g><g filter="url(#r)"><path fill="url(#s)" d="M45.993 173.109a76.024 76.024 0 0 1-3.842-40.301l11.976 2.112a63.86 63.86 0 0 0 3.227 33.853l-11.36 4.336z"/></g><g filter="url(#t)"><path fill="url(#u)" d="M79.497 212.182a76.009 76.009 0 0 1-33.422-39.192l11.381-4.287a63.85 63.85 0 0 0 28.074 32.921l-6.033 10.558z"/></g><g filter="url(#v)"><path fill="url(#w)" d="M152.842 213.041a75.986 75.986 0 0 1-73.215-.841l5.98-10.59a63.827 63.827 0 0 0 61.501.707l5.734 10.724z"/></g><g filter="url(#x)"><path fill="url(#y)" d="M192.858 140.245a76.002 76.002 0 0 1-9.282 42.615 76.031 76.031 0 0 1-31.182 30.501l-5.651-10.767a63.857 63.857 0 0 0 33.99-61.417l12.125-.932z"/></g><g filter="url(#z)"><path fill="url(#A)" d="M114.581 59.263c23.564.747 45.956 10.394 62.619 26.978 16.663 16.584 26.346 38.859 27.078 62.292l-16.677.516c-.601-19.215-8.541-37.481-22.205-51.08-13.664-13.599-32.025-21.51-51.347-22.122l.532-16.584z"/><path stroke="#fff" stroke-linejoin="round" d="M114.081 59.247a.5.5 0 0 1 .516-.484c23.69.751 46.202 10.45 62.956 27.124 16.753 16.674 26.489 39.07 27.225 62.63a.502.502 0 0 1-.484.516l-16.678.515a.499.499 0 0 1-.515-.484c-.596-19.087-8.483-37.231-22.057-50.74-13.574-13.51-31.815-21.368-51.011-21.977a.5.5 0 0 1-.484-.516l.532-16.584z"/></g><g filter="url(#B)"><path fill="url(#C)" d="M55.933 100.402a76.001 76.001 0 0 1 23.373-20.304l5.94 10.611a63.85 63.85 0 0 0-19.633 17.055l-9.68-7.362z"/></g><defs><filter id="k" width="96" height="96.015" x="111" y="58" color-interpolation-filters="sRGB" filterUnits="userSpaceOnUse"><feFlood flood-opacity="0" result="BackgroundImageFix"/><feColorMatrix in="SourceAlpha" result="hardAlpha" values="0 0 0 0 0 0 0 0 0 0 0 0 0 0 0 0 0 0 127 0"/><feOffset dy="2"/><feGaussianBlur stdDeviation="1"/><feComposite in2="hardAlpha" operator="out"/><feColorMatrix values="0 0 0 0 0 0 0 0 0 0 0 0 0 0 0 0 0 0 0.12 0"/><feBlend in2="BackgroundImageFix" result="effect1_dropShadow_31_55"/><feBlend in="SourceGraphic" in2="effect1_dropShadow_31_55" result="shape"/></filter><filter id="B" width="110.386" height="108.74" x="15.396" y="59.83" color-interpolation-filters="sRGB" filterUnits="userSpaceOnUse"><feFlood flood-opacity="0" result="BackgroundImageFix"/><feColorMatrix in="SourceAlpha" result="hardAlpha" values="0 0 0 0 0 0 0 0 0 0 0 0 0 0 0 0 0 0 127 0"/><feOffset dy="20.268"/><feGaussianBlur stdDeviation="20.268"/><feColorMatrix values="0 0 0 0 0.138609 0 0 0 0 0.169167 0 0 0 0 0.107139 0 0 0 0.25 0"/><feBlend in2="BackgroundImageFix" result="effect1_dropShadow_31_55"/><feBlend in="SourceGraphic" in2="effect1_dropShadow_31_55" result="shape"/><feColorMatrix in="SourceAlpha" result="hardAlpha" values="0 0 0 0 0 0 0 0 0 0 0 0 0 0 0 0 0 0 127 0"/><feOffset dy="6.756"/><feGaussianBlur stdDeviation="3.378"/><feComposite in2="hardAlpha" k2="-1" k3="1" operator="arithmetic"/><feColorMatrix values="0 0 0 0 0.803932 0 0 0 0 0.981167 0 0 0 0 0.621406 0 0 0 1 0"/><feBlend in2="shape" result="effect2_innerShadow_31_55"/><feColorMatrix in="SourceAlpha" result="hardAlpha" values="0 0 0 0 0 0 0 0 0 0 0 0 0 0 0 0 0 0 127 0"/><feOffset dy="-6.756"/><feGaussianBlur stdDeviation="3.378"/><feComposite in2="hardAlpha" k2="-1" k3="1" operator="arithmetic"/><feColorMatrix values="0 0 0 0 0.554436 0 0 0 0 0.676667 0 0 0 0 0.428556 0 0 0 1 0"/><feBlend in2="effect2_innerShadow_31_55" result="effect3_innerShadow_31_55"/></filter><filter id="m" width="95.798" height="35.503" x="83.112" y="0" color-interpolation-filters="sRGB" filterUnits="userSpaceOnUse"><feFlood flood-opacity="0" result="BackgroundImageFix"/><feColorMatrix in="SourceAlpha" result="hardAlpha" values="0 0 0 0 0 0 0 0 0 0 0 0 0 0 0 0 0 0 127 0"/><feOffset dy="1"/><feGaussianBlur stdDeviation="3"/><feComposite in2="hardAlpha" operator="out"/><feColorMatrix values="0 0 0 0 0 0 0 0 0 0 0 0 0 0 0 0 0 0 0.25 0"/><feBlend in2="BackgroundImageFix" result="effect1_dropShadow_31_55"/><feBlend in="SourceGraphic" in2="effect1_dropShadow_31_55" result="shape"/><feColorMatrix in="SourceAlpha" result="hardAlpha" values="0 0 0 0 0 0 0 0 0 0 0 0 0 0 0 0 0 0 127 0"/><feOffset dx="-2" dy="4"/><feGaussianBlur stdDeviation="2"/><feComposite in2="hardAlpha" k2="-1" k3="1" operator="arithmetic"/><feColorMatrix values="0 0 0 0 1 0 0 0 0 1 0 0 0 0 1 0 0 0 0.25 0"/><feBlend in2="shape" result="effect2_innerShadow_31_55"/></filter><filter id="n" width="95.525" height="94.544" x="62.523" y="49.416" color-interpolation-filters="sRGB" filterUnits="userSpaceOnUse"><feFlood flood-opacity="0" result="BackgroundImageFix"/><feColorMatrix in="SourceAlpha" result="hardAlpha" values="0 0 0 0 0 0 0 0 0 0 0 0 0 0 0 0 0 0 127 0"/><feOffset dy="20.268"/><feGaussianBlur stdDeviation="20.268"/><feColorMatrix values="0 0 0 0 0.139608 0 0 0 0 0.139608 0 0 0 0 0.139608 0 0 0 0.25 0"/><feBlend in2="BackgroundImageFix" result="effect1_dropShadow_31_55"/><feBlend in="SourceGraphic" in2="effect1_dropShadow_31_55" result="shape"/><feColorMatrix in="SourceAlpha" result="hardAlpha" values="0 0 0 0 0 0 0 0 0 0 0 0 0 0 0 0 0 0 127 0"/><feOffset dy="6.756"/><feGaussianBlur stdDeviation="3.378"/><feComposite in2="hardAlpha" k2="-1" k3="1" operator="arithmetic"/><feColorMatrix values="0 0 0 0 0.809726 0 0 0 0 0.809726 0 0 0 0 0.809726 0 0 0 1 0"/><feBlend in2="shape" result="effect2_innerShadow_31_55"/><feColorMatrix in="SourceAlpha" result="hardAlpha" values="0 0 0 0 0 0 0 0 0 0 0 0 0 0 0 0 0 0 127 0"/><feOffset dy="-6.756"/><feGaussianBlur stdDeviation="3.378"/><feComposite in2="hardAlpha" k2="-1" k3="1" operator="arithmetic"/><feColorMatrix values="0 0 0 0 0.558431 0 0 0 0 0.558431 0 0 0 0 0.558431 0 0 0 1 0"/><feBlend in2="effect2_innerShadow_31_55" result="effect3_innerShadow_31_55"/></filter><filter id="p" width="108.179" height="100.689" x="38.439" y="50.9" color-interpolation-filters="sRGB" filterUnits="userSpaceOnUse"><feFlood flood-opacity="0" result="BackgroundImageFix"/><feColorMatrix in="SourceAlpha" result="hardAlpha" values="0 0 0 0 0 0 0 0 0 0 0 0 0 0 0 0 0 0 127 0"/><feOffset dy="20.268"/><feGaussianBlur stdDeviation="20.268"/><feColorMatrix values="0 0 0 0 0.124706 0 0 0 0 0.143529 0 0 0 0 0.190588 0 0 0 0.25 0"/><feBlend in2="BackgroundImageFix" result="effect1_dropShadow_31_55"/><feBlend in="SourceGraphic" in2="effect1_dropShadow_31_55" result="shape"/><feColorMatrix in="SourceAlpha" result="hardAlpha" values="0 0 0 0 0 0 0 0 0 0 0 0 0 0 0 0 0 0 127 0"/><feOffset dy="6.756"/><feGaussianBlur stdDeviation="3.378"/><feComposite in2="hardAlpha" k2="-1" k3="1" operator="arithmetic"/><feColorMatrix values="0 0 0 0 0.723294 0 0 0 0 0.832471 0 0 0 0 1 0 0 0 1 0"/><feBlend in2="shape" result="effect2_innerShadow_31_55"/><feColorMatrix in="SourceAlpha" result="hardAlpha" values="0 0 0 0 0 0 0 0 0 0 0 0 0 0 0 0 0 0 127 0"/><feOffset dy="-6.756"/><feGaussianBlur stdDeviation="3.378"/><feComposite in2="hardAlpha" k2="-1" k3="1" operator="arithmetic"/><feColorMatrix values="0 0 0 0 0.498824 0 0 0 0 0.574118 0 0 0 0 0.762353 0 0 0 1 0"/><feBlend in2="effect2_innerShadow_31_55" result="effect3_innerShadow_31_55"/></filter><filter id="r" width="97.43" height="121.375" x=".46" y="112.539" color-interpolation-filters="sRGB" filterUnits="userSpaceOnUse"><feFlood flood-opacity="0" result="BackgroundImageFix"/><feColorMatrix in="SourceAlpha" result="hardAlpha" values="0 0 0 0 0 0 0 0 0 0 0 0 0 0 0 0 0 0 127 0"/><feOffset dy="20.268"/><feGaussianBlur stdDeviation="20.268"/><feColorMatrix values="0 0 0 0 0.2 0 0 0 0 0.145833 0 0 0 0 0.145833 0 0 0 0.25 0"/><feBlend in2="BackgroundImageFix" result="effect1_dropShadow_31_55"/><feBlend in="SourceGraphic" in2="effect1_dropShadow_31_55" result="shape"/><feColorMatrix in="SourceAlpha" result="hardAlpha" values="0 0 0 0 0 0 0 0 0 0 0 0 0 0 0 0 0 0 127 0"/><feOffset dy="6.756"/><feGaussianBlur stdDeviation="3.378"/><feComposite in2="hardAlpha" k2="-1" k3="1" operator="arithmetic"/><feColorMatrix values="0 0 0 0 1 0 0 0 0 0.845833 0 0 0 0 0.845833 0 0 0 1 0"/><feBlend in2="shape" result="effect2_innerShadow_31_55"/><feColorMatrix in="SourceAlpha" result="hardAlpha" values="0 0 0 0 0 0 0 0 0 0 0 0 0 0 0 0 0 0 127 0"/><feOffset dy="-6.756"/><feGaussianBlur stdDeviation="3.378"/><feComposite in2="hardAlpha" k2="-1" k3="1" operator="arithmetic"/><feColorMatrix values="0 0 0 0 0.8 0 0 0 0 0.583333 0 0 0 0 0.583333 0 0 0 1 0"/><feBlend in2="effect2_innerShadow_31_55" result="effect3_innerShadow_31_55"/></filter><filter id="t" width="120.528" height="124.553" x="5.539" y="148.435" color-interpolation-filters="sRGB" filterUnits="userSpaceOnUse"><feFlood flood-opacity="0" result="BackgroundImageFix"/><feColorMatrix in="SourceAlpha" result="hardAlpha" values="0 0 0 0 0 0 0 0 0 0 0 0 0 0 0 0 0 0 127 0"/><feOffset dy="20.268"/><feGaussianBlur stdDeviation="20.268"/><feColorMatrix values="0 0 0 0 0.18902 0 0 0 0 0.188235 0 0 0 0 0.115294 0 0 0 0.25 0"/><feBlend in2="BackgroundImageFix" result="effect1_dropShadow_31_55"/><feBlend in="SourceGraphic" in2="effect1_dropShadow_31_55" result="shape"/><feColorMatrix in="SourceAlpha" result="hardAlpha" values="0 0 0 0 0 0 0 0 0 0 0 0 0 0 0 0 0 0 127 0"/><feOffset dy="6.756"/><feGaussianBlur stdDeviation="3.378"/><feComposite in2="hardAlpha" k2="-1" k3="1" operator="arithmetic"/><feColorMatrix values="0 0 0 0 1 0 0 0 0 1 0 0 0 0 0.668706 0 0 0 1 0"/><feBlend in2="shape" result="effect2_innerShadow_31_55"/><feColorMatrix in="SourceAlpha" result="hardAlpha" values="0 0 0 0 0 0 0 0 0 0 0 0 0 0 0 0 0 0 127 0"/><feOffset dy="-6.756"/><feGaussianBlur stdDeviation="3.378"/><feComposite in2="hardAlpha" k2="-1" k3="1" operator="arithmetic"/><feColorMatrix values="0 0 0 0 0.756078 0 0 0 0 0.752941 0 0 0 0 0.461176 0 0 0 1 0"/><feBlend in2="effect2_innerShadow_31_55" result="effect3_innerShadow_31_55"/></filter><filter id="v" width="154.289" height="101.489" x="39.09" y="181.342" color-interpolation-filters="sRGB" filterUnits="userSpaceOnUse"><feFlood flood-opacity="0" result="BackgroundImageFix"/><feColorMatrix in="SourceAlpha" result="hardAlpha" values="0 0 0 0 0 0 0 0 0 0 0 0 0 0 0 0 0 0 127 0"/><feOffset dy="20.268"/><feGaussianBlur stdDeviation="20.268"/><feColorMatrix values="0 0 0 0 0.117 0 0 0 0 0.173333 0 0 0 0 0.144673 0 0 0 0.25 0"/><feBlend in2="BackgroundImageFix" result="effect1_dropShadow_31_55"/><feBlend in="SourceGraphic" in2="effect1_dropShadow_31_55" result="shape"/><feColorMatrix in="SourceAlpha" result="hardAlpha" values="0 0 0 0 0 0 0 0 0 0 0 0 0 0 0 0 0 0 127 0"/><feOffset dy="6.756"/><feGaussianBlur stdDeviation="3.378"/><feComposite in2="hardAlpha" k2="-1" k3="1" operator="arithmetic"/><feColorMatrix values="0 0 0 0 0.6786 0 0 0 0 1 0 0 0 0 0.839101 0 0 0 1 0"/><feBlend in2="shape" result="effect2_innerShadow_31_55"/><feColorMatrix in="SourceAlpha" result="hardAlpha" values="0 0 0 0 0 0 0 0 0 0 0 0 0 0 0 0 0 0 127 0"/><feOffset dy="-6.756"/><feGaussianBlur stdDeviation="3.378"/><feComposite in2="hardAlpha" k2="-1" k3="1" operator="arithmetic"/><feColorMatrix values="0 0 0 0 0.468 0 0 0 0 0.693333 0 0 0 0 0.57869 0 0 0 1 0"/><feBlend in2="effect2_innerShadow_31_55" result="effect3_innerShadow_31_55"/></filter><filter id="x" width="127.412" height="154.19" x="106.206" y="119.976" color-interpolation-filters="sRGB" filterUnits="userSpaceOnUse"><feFlood flood-opacity="0" result="BackgroundImageFix"/><feColorMatrix in="SourceAlpha" result="hardAlpha" values="0 0 0 0 0 0 0 0 0 0 0 0 0 0 0 0 0 0 127 0"/><feOffset dy="20.268"/><feGaussianBlur stdDeviation="20.268"/><feColorMatrix values="0 0 0 0 0.2 0 0 0 0 0.122353 0 0 0 0 0.122353 0 0 0 0.25 0"/><feBlend in2="BackgroundImageFix" result="effect1_dropShadow_31_55"/><feBlend in="SourceGraphic" in2="effect1_dropShadow_31_55" result="shape"/><feColorMatrix in="SourceAlpha" result="hardAlpha" values="0 0 0 0 0 0 0 0 0 0 0 0 0 0 0 0 0 0 127 0"/><feOffset dy="6.756"/><feGaussianBlur stdDeviation="3.378"/><feComposite in2="hardAlpha" k2="-1" k3="1" operator="arithmetic"/><feColorMatrix values="0 0 0 0 1 0 0 0 0 0.709647 0 0 0 0 0.709647 0 0 0 1 0"/><feBlend in2="shape" result="effect2_innerShadow_31_55"/><feColorMatrix in="SourceAlpha" result="hardAlpha" values="0 0 0 0 0 0 0 0 0 0 0 0 0 0 0 0 0 0 127 0"/><feOffset dy="-6.756"/><feGaussianBlur stdDeviation="3.378"/><feComposite in2="hardAlpha" k2="-1" k3="1" operator="arithmetic"/><feColorMatrix values="0 0 0 0 0.8 0 0 0 0 0.489412 0 0 0 0 0.489412 0 0 0 1 0"/><feBlend in2="effect2_innerShadow_31_55" result="effect3_innerShadow_31_55"/></filter><filter id="z" width="140.233" height="139.79" x="89.675" y="46.246" color-interpolation-filters="sRGB" filterUnits="userSpaceOnUse"><feFlood flood-opacity="0" result="BackgroundImageFix"/><feColorMatrix in="SourceAlpha" result="hardAlpha" values="0 0 0 0 0 0 0 0 0 0 0 0 0 0 0 0 0 0 127 0"/><feOffset dx=".628" dy="11.985"/><feGaussianBlur stdDeviation="12.001"/><feColorMatrix values="0 0 0 0 0.2 0 0 0 0 0.164358 0 0 0 0 0.108799 0 0 0 0.2575 0"/><feBlend in2="BackgroundImageFix" result="effect1_dropShadow_31_55"/><feBlend in="SourceGraphic" in2="effect1_dropShadow_31_55" result="shape"/><feColorMatrix in="SourceAlpha" result="hardAlpha" values="0 0 0 0 0 0 0 0 0 0 0 0 0 0 0 0 0 0 127 0"/><feOffset dx=".202" dy="3.862"/><feGaussianBlur stdDeviation="1.933"/><feComposite in2="hardAlpha" k2="-1" k3="1" operator="arithmetic"/><feColorMatrix values="0 0 0 0 1 0 0 0 0 0.961496 0 0 0 0 0.636474 0 0 0 1 0"/><feBlend in2="shape" result="effect2_innerShadow_31_55"/><feColorMatrix in="SourceAlpha" result="hardAlpha" values="0 0 0 0 0 0 0 0 0 0 0 0 0 0 0 0 0 0 127 0"/><feOffset dx="-.202" dy="-3.862"/><feGaussianBlur stdDeviation="1.933"/><feComposite in2="hardAlpha" k2="-1" k3="1" operator="arithmetic"/><feColorMatrix values="0 0 0 0 0.7875 0 0 0 0 0.647161 0 0 0 0 0.428396 0 0 0 1 0"/><feBlend in2="effect2_innerShadow_31_55" result="effect3_innerShadow_31_55"/></filter><filter id="i" width="109.964" height="123.469" x="1.549" y="73.358" color-interpolation-filters="sRGB" filterUnits="userSpaceOnUse"><feFlood flood-opacity="0" result="BackgroundImageFix"/><feColorMatrix in="SourceAlpha" result="hardAlpha" values="0 0 0 0 0 0 0 0 0 0 0 0 0 0 0 0 0 0 127 0"/><feOffset dy="20.268"/><feGaussianBlur stdDeviation="20.268"/><feColorMatrix values="0 0 0 0 0.127188 0 0 0 0 0.174883 0 0 0 0 0.185 0 0 0 0.25 0"/><feBlend in2="BackgroundImageFix" result="effect1_dropShadow_31_55"/><feBlend in="SourceGraphic" in2="effect1_dropShadow_31_55" result="shape"/><feColorMatrix in="SourceAlpha" result="hardAlpha" values="0 0 0 0 0 0 0 0 0 0 0 0 0 0 0 0 0 0 127 0"/><feOffset dy="6.756"/><feGaussianBlur stdDeviation="3.378"/><feComposite in2="hardAlpha" k2="-1" k3="1" operator="arithmetic"/><feColorMatrix values="0 0 0 0 0.737688 0 0 0 0 1 0 0 0 0 1 0 0 0 1 0"/><feBlend in2="shape" result="effect2_innerShadow_31_55"/><feColorMatrix in="SourceAlpha" result="hardAlpha" values="0 0 0 0 0 0 0 0 0 0 0 0 0 0 0 0 0 0 127 0"/><feOffset dy="-6.756"/><feGaussianBlur stdDeviation="3.378"/><feComposite in2="hardAlpha" k2="-1" k3="1" operator="arithmetic"/><feColorMatrix values="0 0 0 0 0.50875 0 0 0 0 0.699531 0 0 0 0 0.74 0 0 0 1 0"/><feBlend in2="effect2_innerShadow_31_55" result="effect3_innerShadow_31_55"/></filter><linearGradient id="j" x1="55.548" x2="178.719" y1="190.686" y2="101.575" gradientUnits="userSpaceOnUse"><stop stop-color="#B6FAFF"/><stop offset="1" stop-color="#88BBC6"/></linearGradient><linearGradient id="o" x1="103.615" x2="135.743" y1="71.44" y2="216.56" gradientUnits="userSpaceOnUse"><stop stop-color="#C7C7C7"/><stop offset="1" stop-color="#969696"/></linearGradient><linearGradient id="q" x1="68.388" x2="165.705" y1="87.651" y2="204.446" gradientUnits="userSpaceOnUse"><stop stop-color="#B2CDFF"/><stop offset="1" stop-color="#869ACC"/></linearGradient><linearGradient id="s" x1="130.14" x2="103.855" y1="220.876" y2="71.14" gradientUnits="userSpaceOnUse"><stop stop-color="#FFD0D0"/><stop offset="1" stop-color="#D69C9C"/></linearGradient><linearGradient id="u" x1="192.242" x2="42.169" y1="158.339" y2="134.051" gradientUnits="userSpaceOnUse"><stop stop-color="#FFFFA5"/><stop offset="1" stop-color="#CACA7B"/></linearGradient><linearGradient id="w" x1="119.32" x2="114.68" y1="70.035" y2="221.99" gradientUnits="userSpaceOnUse"><stop stop-color="#A7F8CF"/><stop offset="1" stop-color="#7DBA9B"/></linearGradient><linearGradient id="y" x1="53.193" x2="180.951" y1="187.268" y2="104.868" gradientUnits="userSpaceOnUse"><stop stop-color="#FFAFAF"/><stop offset="1" stop-color="#D68383"/></linearGradient><linearGradient id="A" x1="206.497" x2="116.592" y1="104.178" y2="99.73" gradientUnits="userSpaceOnUse"><stop stop-color="#FFEC9C"/><stop offset="1" stop-color="#D4AE73"/></linearGradient><linearGradient id="C" x1="40.946" x2="191.914" y1="137.472" y2="155.366" gradientUnits="userSpaceOnUse"><stop stop-color="#C6F299"/><stop offset="1" stop-color="#94B573"/></linearGradient><radialGradient id="l" cx="0" cy="0" r="1" gradientTransform="matrix(76.31256 78.7732 -78.76028 76.30003 111.665 72.678)" gradientUnits="userSpaceOnUse"><stop stop-color="#FFDDA8"/><stop offset="1" stop-color="#FFC66D"/></radialGradient></defs></svg>